/* XPM */
static char *_2393_7e341a9e37c11f99b4f0be823e6bf4377cb40a35791b5409fa73ae754ff01974[] = {
/* columns rows colors chars-per-pixel */
"46 64 22 1 ",
"  c black",
". c #202020",
"X c #2C2C2C",
"o c gray22",
"O c gray25",
"+ c #484848",
"@ c #4C4C4C",
"# c gray33",
"$ c gray36",
"% c #646464",
"& c gray44",
"* c #7C7C7C",
"= c gray55",
"- c #989898",
"; c gray66",
": c #B4B4B4",
"> c #C0C0C0",
", c #D0D0D0",
"< c gainsboro",
"1 c #ECECEC",
"2 c gray99",
"3 c None",
/* pixels */
"333333333;;;;=======&&&&%333333333333333333333",
"3333;;<<,,,>>>::;;--==*&&%#+##3333333333333333",
"33>22111<<<,,,>>::;-&>=*&%#+OooX33333333333333",
"312222111222<<,>>::;--=**+#+Ooo.X3333333333333",
"<112222221<,>>::;;-=**&%%%%oOoX.XX333333333333",
"<<1122211,,,>>;,;;-=**&%%#O+XX..XX333333333333",
"><<2122111<<,,>>::;-=*&%#+OXo..XXX333333333333",
"3>>211221122<<,>>;;-=*&%#OoX...XX3333333333333",
"333:1122221<,>;:-=*&%#+OXoX....333333333333333",
"3333:>>2221<,>:;-=*&%#+OoXX..X3333333333333333",
"33333->1221<,>:;-=*&#%+OoX..X33333333333333333",
"33333->1221<,>:;-=*&%#+OoX..X33333333333333333",
"33333->2221<,>:;=;*&%#+OXo..X33333333333333333",
"33333->2221<,>:=-;*&%#+OoX..X33333333333333333",
"33333->2221<,>:;-=*&%O%OoX..X33333333333333333",
"33333->2221<,>:;-=*&%#%OoX..X33333333333333333",
"33333->11<,>:;-=*&%#+O+X....X33333333333333333",
"33333-=;:;;==*&&%%#+OoX......33333333333333333",
"333333<2<1221<,>:;-=*&#%+o.X333333333333333333",
"33333><2222<,>:;-=*&%#+#oXX.o33333333333333333",
"33333><2221<,,:;-*=&%#+OoX..X33333333333333333",
"33333->2221<:1:;-=&*%#+OoX..X33333333333333333",
"33333->2221<>1:;-=*&%#+OXo..X33333333333333333",
"33333->2221<,,:;-=*&#%+OoX .X33333333333333333",
"33333->2221<,>:;-=*&%#+X+X..X33333333333333333",
"33333-;2221:2>:;-=*&%#+OoX..X33333333333333333",
"33333-<2221<,>:;-*-&%#+oOX..X33333333333333333",
"33333->2221<:<:;-=*&%+#OoX..X33333333333333333",
"33333->2221<,>:;=-*&%#+OXo..X33333333333333333",
"33333*-<1<,>:;-=*&%#+OoX.....33333333333333333",
"333333*-;-==**&&%%#+OoX..   333333333333333333",
"33333;,22222><,>:;-=*&%#+oXXo33333333333333333",
"33333->2221<1>:;-=*&%#+OoX..X33333333333333333",
"33333->2221<,>:;=-*%*#+OXO .X33333333333333333",
"33333->2221<:1:;-=*&%#O+oX..X33333333333333333",
"33333->22<2<,>:;-=*&%+#Oo.X.X33333333333333333",
"33333->2121<:>;:-*=&%##OoX...33333333333333333",
"33333->2221:2>:;-=*&%#+oOX..X33333333333333333",
"33333->22212,>:;-=&*%#+OoX..X33333333333333333",
"33333->22<2<,>:;=-*&%#O+Xo..X33333333333333333",
"33333->2221<,:<;-=*&#%+OoX..X33333333333333333",
"33333->2221,1>:;-=&*%#+OXo..X33333333333333333",
"33333*>1211<,>:--=*&%+#OoX..o33333333333333333",
"333333;,<>>>:;-&-&%#+OoX....333333333333333333",
"33333;1:>,>-=*&#%%#+OoX......33333333333333333",
"33333-,212221<,>:=-=*&%#+o.XX33333333333333333",
"33333->2221<,>:;-*-&%#+OXO..X33333333333333333",
"33333->222,2,>-<-=*&%#+OoX..X33333333333333333",
"33333->2221<,>:;-*-&%+#OoX..X33333333333333333",
"33333->2221<,>:;-=*&#%+OoX..X33333333333333333",
"33333->2221<,>->-=*%&#+OoX..X33333333333333333",
"33333->2221<,;<;-=*&%#O#oX..X33333333333333333",
"33333->122,2,>:;-=*&%#+OoX..X33333333333333333",
"33333->122,2,>:;-=*&%+#OoX..X33333333333333333",
"3333:<>2221<,>:-:=*&%#+OoXo..X3333333333333333",
"333:1122221<,>:;-=*&%#+OXoX...XX33333333333333",
"3>>212221122<<,>>;;-=*&%#OoX...XXXO+@##$$%%333",
"><<2122111<<,,>>::;-=*&%#+OXo..XXXooO++@##$%%3",
"<<1122211,,,>>::;;=;**&%%#O+XX..XXooooO++@#$$%",
"<112222221<,>>::;;-=**&%%&%@@oX.XXooooO++@#$$%",
"312222111222<<,>>::;--=**&$O$oo.XoooOO+@@#$$%3",
"33>22111<<<,,,>:,:;--=*=&%$+OooXOOO+++@#$$%333",
"3333;;<<,,,>>>::;;--==*&&%#+OO+#$$$%%%%%%33333",
"333333333;;;;=======&&&&%#OO+#$%%3333333333333"
};
