/* XPM */
static char *_644_cf0d24ce5fae6bcd8eee4a25bdb4942d3cbc7cea4e40728cfeebfe3aae14e470[] = {
/* columns rows colors chars-per-pixel */
"21 30 49 1 ",
"  c #2C2C2C",
". c gray22",
"X c #543C1C",
"o c #6C4824",
"O c #744C28",
"+ c #484848",
"@ c gray33",
"# c #646464",
"$ c #7C7C7C",
"% c #9C4C00",
"& c #A85400",
"* c #B45400",
"= c #80502C",
"- c #885830",
"; c #905C34",
": c #9C6038",
"> c #A0643C",
", c #CC6000",
"< c #E46C00",
"1 c #A86840",
"2 c #B47044",
"3 c #BC7848",
"4 c #C87C4C",
"5 c #FC8820",
"6 c #D08050",
"7 c #DC8854",
"8 c #FC9840",
"9 c #E88C58",
"0 c #F0945C",
"q c #FCA85C",
"w c #FC9C60",
"e c #FCA470",
"r c #006CB4",
"t c #0000C8",
"y c #007CCC",
"u c #008CE4",
"i c #009CFC",
"p c #20A8FC",
"a c #40B0FC",
"s c #5CBCFC",
"d c #FCB080",
"f c #FCB890",
"g c #FCBC9C",
"h c #FCC4A4",
"j c #FCD4BC",
"k c #FCD8C4",
"l c #FCE8DC",
"z c #D8D8FC",
"x c None",
/* pixels */
"xxxxxxxuuuuuuyxxxxxxx",
"xxxxxuiiiiiuuuyyxxxxx",
"xxxxiiszzssiiuuyyxxxx",
"xxxiiszfq85<<,uuyyxxx",
"xxiiszfq5<&*<<,uuyyxx",
"xuiisf5<-O&X%,O&uuyyx",
"xiias5,0fe7>:6:Ouuyyx",
"yiiaa46efhh9we4Ouuuyy",
"yiipa29o 0fw@.4Ouuuyy",
"yiippwf$t$0$t$77uuuyy",
"yiiip7jjlfkhjle4uuuyy",
"yuiii1fhjw9wjhw1uuuyr",
"yuiiiifdhfehhw9iuuyry",
"yuuiiifeh999f96uuuyyy",
"xuuuiiwghjhfe92uuyyrx",
"xyuuuuewee6e9:;uyyryx",
"xxyuuu9e4:::O=1yyryxx",
"xxxyuu7970e061>yyrxxx",
"xxxxyyu963331>yrrxxxx",
"xxxxxyyyyyyyyyrrxxxxx",
"xxxxxxxyyyyrrrxxxxxxx",
"xxxxxxxxxxxxxxxxxxxxx",
"xxxxxxxxxxxxxxxxxxxxx",
"xxxxxxxxxxxxxxxxxxxxx",
"xxxxxxxxxxxxxxxxxxxxx",
"xxxxxxxxxxxxxxxxxxxxx",
"xxxxxxxxxxxxxxxxxxxxx",
"xxxxx###########xxxxx",
"xx###@@@+++++@@@###xx",
"xxxxxx#########xxxxxx"
};
